REM DIRINDEX 1\2,1\3,1\4,1\5
REM DIRNAME cjc005,folder01,folder02,folder03,folder04
TITLE ""
FILE "P1Q_t_0702-0711.mp3" MP3
  TRACK 01 AUDIO
    TITLE "3:cjc005_3010"
    INDEX 01 00:00:00
  TRACK 02 AUDIO
    TITLE "0:"
    INDEX 01 00:01:24
  TRACK 03 AUDIO
    TITLE "4:cjc005_3011"
    INDEX 01 00:01:52
  TRACK 04 AUDIO
    TITLE "0:"
    INDEX 01 00:02:69
  TRACK 05 AUDIO
    TITLE "5:cjc005_3012"
    INDEX 01 00:03:17
  TRACK 06 AUDIO
    TITLE "0:"
    INDEX 01 00:07:05
  TRACK 07 AUDIO
    TITLE "3:cjc005_3013"
    INDEX 01 00:07:60
  TRACK 08 AUDIO
    TITLE "0:"
    INDEX 01 00:08:72
  TRACK 09 AUDIO
    TITLE "4:cjc005_3014"
    INDEX 01 00:09:14
  TRACK 10 AUDIO
    TITLE "0:"
    INDEX 01 00:10:33
  TRACK 11 AUDIO
    TITLE "5:cjc005_3015"
    INDEX 01 00:10:57
  TRACK 12 AUDIO
    TITLE "0:"
    INDEX 01 00:15:01
  TRACK 13 AUDIO
    TITLE "3:cjc005_3016"
    INDEX 01 00:15:56
  TRACK 14 AUDIO
    TITLE "0:"
    INDEX 01 00:16:73
  TRACK 15 AUDIO
    TITLE "4:cjc005_3017"
    INDEX 01 00:17:25
  TRACK 16 AUDIO
    TITLE "0:"
    INDEX 01 00:19:15
  TRACK 17 AUDIO
    TITLE "5:cjc005_3018"
    INDEX 01 00:19:36
  TRACK 18 AUDIO
    TITLE "0:"
    INDEX 01 00:24:00
  TRACK 19 AUDIO
    TITLE "3:cjc005_3019"
    INDEX 01 00:24:49
  TRACK 20 AUDIO
    TITLE "0:"
    INDEX 01 00:26:11
  TRACK 21 AUDIO
    TITLE "4:cjc005_3020"
    INDEX 01 00:26:44
  TRACK 22 AUDIO
    TITLE "0:"
    INDEX 01 00:27:55
  TRACK 23 AUDIO
    TITLE "5:cjc005_3021"
    INDEX 01 00:28:08
  TRACK 24 AUDIO
    TITLE "0:"
    INDEX 01 00:31:45
  TRACK 25 AUDIO
    TITLE "3:cjc005_3022"
    INDEX 01 00:32:29
  TRACK 26 AUDIO
    TITLE "0:"
    INDEX 01 00:33:42
  TRACK 27 AUDIO
    TITLE "4:cjc005_3023"
    INDEX 01 00:33:66
  TRACK 28 AUDIO
    TITLE "0:"
    INDEX 01 00:35:02
  TRACK 29 AUDIO
    TITLE "5:cjc005_3024"
    INDEX 01 00:35:31
  TRACK 30 AUDIO
    TITLE "0:"
    INDEX 01 00:40:09
  TRACK 31 AUDIO
    TITLE "3:cjc005_3025"
    INDEX 01 00:40:64
  TRACK 32 AUDIO
    TITLE "0:"
    INDEX 01 00:42:18
  TRACK 33 AUDIO
    TITLE "4:cjc005_3026"
    INDEX 01 00:42:47
  TRACK 34 AUDIO
    TITLE "0:"
    INDEX 01 00:43:58
  TRACK 35 AUDIO
    TITLE "5:cjc005_3027"
    INDEX 01 00:44:09
  TRACK 36 AUDIO
    TITLE "0:"
    INDEX 01 00:47:44
  TRACK 37 AUDIO
    TITLE "3:cjc005_3028"
    INDEX 01 00:48:28
  TRACK 38 AUDIO
    TITLE "0:"
    INDEX 01 00:49:31
  TRACK 39 AUDIO
    TITLE "4:cjc005_3029"
    INDEX 01 00:49:55
  TRACK 40 AUDIO
    TITLE "0:"
    INDEX 01 00:50:72
  TRACK 41 AUDIO
    TITLE "5:cjc005_3030"
    INDEX 01 00:51:16
  TRACK 42 AUDIO
    TITLE "0:"
    INDEX 01 00:54:19
  TRACK 43 AUDIO
    TITLE "3:cjc005_3031"
    INDEX 01 00:54:74
  TRACK 44 AUDIO
    TITLE "0:"
    INDEX 01 00:56:16
  TRACK 45 AUDIO
    TITLE "4:cjc005_3032"
    INDEX 01 00:56:49
  TRACK 46 AUDIO
    TITLE "0:"
    INDEX 01 00:58:34
  TRACK 47 AUDIO
    TITLE "5:cjc005_3033"
    INDEX 01 00:58:64
  TRACK 48 AUDIO
    TITLE "0:"
    INDEX 01 01:01:68
  TRACK 49 AUDIO
    TITLE "3:cjc005_3034"
    INDEX 01 01:02:44
  TRACK 50 AUDIO
    TITLE "0:"
    INDEX 01 01:03:57
  TRACK 51 AUDIO
    TITLE "4:cjc005_3035"
    INDEX 01 01:04:09
  TRACK 52 AUDIO
    TITLE "0:"
    INDEX 01 01:05:15
  TRACK 53 AUDIO
    TITLE "5:cjc005_3036"
    INDEX 01 01:05:38
  TRACK 54 AUDIO
    TITLE "0:"
    INDEX 01 01:09:20
  TRACK 55 AUDIO
    TITLE "3:cjc005_3037"
    INDEX 01 01:09:71
  TRACK 56 AUDIO
    TITLE "0:"
    INDEX 01 01:11:11
  TRACK 57 AUDIO
    TITLE "4:cjc005_3038"
    INDEX 01 01:11:37
  TRACK 58 AUDIO
    TITLE "0:"
    INDEX 01 01:12:36
  TRACK 59 AUDIO
    TITLE "5:cjc005_3039"
    INDEX 01 01:12:54
  TRACK 60 AUDIO
    TITLE "0:"
    INDEX 01 01:16:16
